<svg xmlns="http://www.w3.org/2000/svg" version="1.1" xmlns:xlink="http://www.w3.org/1999/xlink" width="1500"
     height="276" viewBox="0 0 1500 276">
    <g transform="matrix(1,0,0,1,-0.355849578476068,-2.168899999999951)">
        <svg viewBox="0 0 326 60" data-background-color="#ffffff" preserveAspectRatio="xMidYMid meet" height="276"
             width="1500" xmlns="http://www.w3.org/2000/svg" xmlns:xlink="http://www.w3.org/1999/xlink">
            <g id="tight-bounds" transform="matrix(1,0,0,1,0.07733797505545681,0.4714999999999918)">
                <svg viewBox="0 0 325.8453240498891 59.056999999999995" height="59.056999999999995"
                     width="325.8453240498891">
                    <g>
                        <svg viewBox="0 0 325.8453240498891 59.056999999999995" height="59.056999999999995"
                             width="325.8453240498891">
                            <g>
                                <svg viewBox="0 0 325.8453240498891 59.056999999999995" height="59.056999999999995"
                                     width="325.8453240498891">
                                    <g id="textblocktransform">
                                        <svg viewBox="0 0 325.8453240498891 59.056999999999995"
                                             height="59.056999999999995" width="325.8453240498891" id="textblock">
                                            <g>
                                                <svg viewBox="0 0 325.8453240498891 59.056999999999995"
                                                     height="59.056999999999995" width="325.8453240498891">
                                                    <g>
                                                        <svg>
                                                            <g></g>
                                                            <g></g>
                                                        </svg>
                                                    </g>
                                                    <g>
                                                        <svg>
                                                            <g>
                                                                <svg></svg>
                                                            </g>
                                                            <g></g>
                                                        </svg>
                                                    </g>
                                                    <g id="text-0">
                                                        <svg viewBox="0 0 325.8453240498891 59.056999999999995"
                                                             height="59.056999999999995" width="325.8453240498891">
                                                            <g transform="matrix(1,0,0,1,0,9.903499999999994)">
                                                                <svg width="115.39999999999999"
                                                                     viewBox="2.75 -35.85 115.39 36.45" height="36.45"
                                                                     data-palette-color="#ffffff">
                                                                    <path d="M13.95-35.1L13.95-35.1Q16.4-35.05 19-34.85 21.6-34.65 24.2-34.1L24.2-34.1 23.9-30.9Q21.75-31 19.15-31.08 16.55-31.15 14.15-31.15L14.15-31.15Q12.3-31.15 10.98-31.03 9.65-30.9 8.8-30.43 7.95-29.95 7.58-28.88 7.2-27.8 7.2-25.9L7.2-25.9Q7.2-23.05 8.22-21.93 9.25-20.8 11.55-20.25L11.55-20.25 18.55-18.5Q22.55-17.55 24.03-15.18 25.5-12.8 25.5-8.8L25.5-8.8Q25.5-5.8 24.83-3.95 24.15-2.1 22.75-1.13 21.35-0.15 19.15 0.23 16.95 0.6 13.95 0.6L13.95 0.6Q12.25 0.6 9.53 0.45 6.8 0.3 3.25-0.35L3.25-0.35 3.55-3.6Q6.5-3.5 8.3-3.43 10.1-3.35 11.4-3.35 12.7-3.35 14.1-3.35L14.1-3.35Q16.75-3.35 18.28-3.75 19.8-4.15 20.43-5.35 21.05-6.55 21.05-8.9L21.05-8.9Q21.05-10.9 20.6-12 20.15-13.1 19.18-13.68 18.2-14.25 16.7-14.6L16.7-14.6 9.55-16.4Q5.8-17.35 4.28-19.7 2.75-22.05 2.75-26L2.75-26Q2.75-29 3.43-30.83 4.1-32.65 5.48-33.58 6.85-34.5 8.95-34.8 11.05-35.1 13.95-35.1ZM63.35-24.35L67.75-24.35 60.65-1.2Q60.5-0.65 60.05-0.33 59.6 0 59 0L59 0 55.15 0Q54.55 0 54.07-0.38 53.6-0.75 53.5-1.35L53.5-1.35 49.5-17.9Q49.3-18.85 49.12-19.8 48.95-20.75 48.7-21.75L48.7-21.75 48.1-21.75Q47.9-20.75 47.67-19.8 47.45-18.85 47.25-17.9L47.25-17.9 43.3-1.35Q43.15-0.75 42.7-0.38 42.25 0 41.6 0L41.6 0 37.8 0Q37.2 0 36.75-0.33 36.3-0.65 36.15-1.2L36.15-1.2 29.05-24.35 33.45-24.35 38.5-6.4Q38.75-5.5 38.95-4.58 39.15-3.65 39.3-2.75L39.3-2.75 39.95-2.75Q40.2-3.65 40.42-4.58 40.65-5.5 40.85-6.4L40.85-6.4 44.9-23Q45-23.6 45.42-23.98 45.85-24.35 46.5-24.35L46.5-24.35 50.35-24.35Q50.95-24.35 51.37-23.98 51.8-23.6 51.95-22.95L51.95-22.95 55.95-6.4Q56.15-5.5 56.37-4.6 56.6-3.7 56.8-2.75L56.8-2.75 57.45-2.75Q57.7-3.7 57.85-4.58 58-5.45 58.3-6.4L58.3-6.4 63.35-24.35ZM73.09-24.35L77.3-24.35 77.3 0 73.09 0 73.09-24.35ZM74.2-34.7L76.2-34.7Q77.5-34.7 77.5-33.4L77.5-33.4 77.5-30.55Q77.5-29.25 76.2-29.25L76.2-29.25 74.2-29.25Q72.9-29.25 72.9-30.55L72.9-30.55 72.9-33.4Q72.9-34.7 74.2-34.7L74.2-34.7ZM94.29-35.85L94.29-35.85Q95.09-35.85 96.34-35.83 97.59-35.8 98.89-35.73 100.19-35.65 101.14-35.5L101.14-35.5 100.79-32.35 95.79-32.35Q93.39-32.35 92.42-31.4 91.44-30.45 91.44-28.25L91.44-28.25 91.44 0 87.19 0 87.19-28.7Q87.19-31 87.89-32.58 88.59-34.15 90.14-35 91.69-35.85 94.29-35.85ZM87.44-24.35L99.24-24.35 99.24-21 82.79-21 82.79-24.1 87.44-24.35ZM106.14-31.55L110.39-31.55 110.39-6.7Q110.39-4.95 111.14-4.2 111.89-3.45 113.69-3.45L113.69-3.45 117.39-3.45 117.89-0.2Q117.09 0 116.04 0.15 114.99 0.3 113.99 0.38 112.99 0.45 112.39 0.45L112.39 0.45Q109.34 0.45 107.74-1.25 106.14-2.95 106.14-6.15L106.14-6.15 106.14-31.55ZM106.54-24.35L118.14-24.35 118.14-21 101.74-21 101.74-24.1 106.54-24.35Z"
                                                                          opacity="1" transform="matrix(1,0,0,1,0,0)"
                                                                          fill="#ffffff" class="undefined-tk-0"></path>
                                                                </svg>
                                                            </g>
                                                            <g>
                                                                <svg xmlns="http://www.w3.org/2000/svg" xmlns:xlink="http://www.w3.org/1999/xlink" version="1.1" x="129.343" y="0" viewBox="7.024011444401839 2.435463019617729 85.95228881548567 95.13022158658126" enable-background="new 0 0 100 100" xml:space="preserve" height="59.056999999999995" width="53.35932404988902" class="icon-dxe-0" data-fill-palette-color="accent" id="dxe-0"><g fill="#ffffff"><path d="M21.813 45.358C23.18 46.009 25.067 45.303 24.037 44.116 23.006 42.924 19.231 41.596 19.77 38.484 21.291 29.758 42.435 3.566 44.227 2.692 45.02 2.127 45.838 2.482 45.34 3.889 44.837 5.301 36.381 19.617 35.522 20.189 35.522 20.189 42.158 12.018 45.057 5.493 45.414 4.589 46.417 5.415 46.027 6.809 45.629 8.198 41.001 17.984 36.861 23.002 36.861 23.002 39.831 19.646 42.446 15.93 42.757 15.264 44.21 14.731 43.446 16.576 42.68 18.417 40.287 22.76 39.44 23.598 39.44 23.598 42.048 20.566 42.414 20.714 42.768 20.863 43.312 20.741 42.29 22.244L37.836 28.798S41.349 24.839 41.471 25.345C41.581 25.855 40.094 29.876 37.013 32.379 37.013 32.379 40.506 29.534 40.37 30.406 40.242 31.27 37.37 34.388 36.802 35.328 30.584 45.579 42.7 51.102 46.738 52.07 56.996 53.749 80.252 50.367 90.505 43.934 90.505 43.934 91.481 43.677 90.876 44.605 88.833 47.744 71.36 53.769 69.346 54.44 64.517 56.055 56.733 61.586 70.558 66 75.973 67.729 91.193 70.521 92.583 70.906 92.583 70.906 93.527 71.605 92.49 71.885 90.636 72.379 61.952 70.885 47.816 63.21 42.785 60.268 35.583 71.948 38.246 77.443 38.827 78.642 41.209 81.186 40.095 81.077 38.983 80.957 36.704 77.139 35.547 77.083 35.547 77.083 42.247 83.862 41.678 84.703 41.237 85.346 40.08 84.011 39.757 83.802 39.757 83.802 43.222 88.656 42.846 88.934 42.266 89.364 40.138 86.69 40.138 86.69S44.331 92.153 43.505 92.701C43.033 93.008 37.144 84.405 35.605 84.102 35.605 84.102 45.591 97.127 44.382 97.557 43.175 97.99 30.28 82.104 27.637 78.45 24.75 74.447 17.794 67.372 20.653 59.515 20.653 59.515 10.976 54.618 8.986 47.603 8.658 47.002 6.909 46.864 7.03 46.422 7.147 45.975 8.184 45.943 9.252 46.126 9.796 46.231 10.689 45.032 11.652 44.526 14.72 42.917 19.743 44.37 21.813 45.358" fill="#ffffff"></path></g></svg>
                                                            </g>
                                                            <g transform="matrix(1,0,0,1,196.645324049889,11.953499999999998)">
                                                                <svg width="129.20000000000002"
                                                                     viewBox="4.25 -34.5 129.19 35.15" height="35.15"
                                                                     data-palette-color="#ffffff">
                                                                    <path d="M4.25-34.5L8.6-34.5 8.6-7Q8.6-5.3 9.43-4.5 10.25-3.7 11.95-3.7L11.95-3.7 24.4-3.7 24.6-0.3Q21.35-0.05 17.98 0 14.6 0.05 11.25 0.05L11.25 0.05Q7.45 0.05 5.85-1.8 4.25-3.65 4.25-6.45L4.25-6.45 4.25-34.5ZM39.8-24.95L39.8-24.95Q44-24.95 46.52-23.7 49.05-22.45 50.15-19.63 51.25-16.8 51.25-12.15L51.25-12.15Q51.25-7.5 50.15-4.67 49.05-1.85 46.52-0.6 44 0.65 39.8 0.65L39.8 0.65Q35.65 0.65 33.12-0.6 30.6-1.85 29.47-4.67 28.35-7.5 28.35-12.15L28.35-12.15Q28.35-16.8 29.47-19.63 30.6-22.45 33.12-23.7 35.65-24.95 39.8-24.95ZM39.8-21.35L39.8-21.35Q37.15-21.35 35.62-20.53 34.1-19.7 33.45-17.7 32.8-15.7 32.8-12.15L32.8-12.15Q32.8-8.6 33.45-6.6 34.1-4.6 35.62-3.78 37.15-2.95 39.8-2.95L39.8-2.95Q42.45-2.95 44-3.78 45.55-4.6 46.2-6.6 46.85-8.6 46.85-12.15L46.85-12.15Q46.85-15.7 46.2-17.7 45.55-19.7 44-20.53 42.45-21.35 39.8-21.35ZM69.4-24.95L69.4-24.95Q72.09-24.95 73.97-24.23 75.84-23.5 76.8-21.8 77.75-20.1 77.75-17.15L77.75-17.15 77.75 0 74.4 0 73.75-5.3 73.45-5.85 73.45-17.15Q73.45-19.4 72.42-20.38 71.4-21.35 68.5-21.35L68.5-21.35Q66.59-21.35 63.72-21.15 60.85-20.95 58.05-20.7L58.05-20.7 57.65-23.85Q59.35-24.15 61.37-24.4 63.4-24.65 65.5-24.8 67.59-24.95 69.4-24.95ZM63.3-15L75.75-15 75.7-11.8 64.05-11.75Q62.3-11.7 61.6-10.83 60.9-9.95 60.9-8.4L60.9-8.4 60.9-6.85Q60.9-4.95 61.8-4.08 62.7-3.2 64.7-3.2L64.7-3.2Q66.09-3.2 67.87-3.73 69.65-4.25 71.45-5.35 73.25-6.45 74.75-8.15L74.75-8.15 74.75-5Q74.2-4.3 73.17-3.38 72.15-2.45 70.72-1.58 69.3-0.7 67.57-0.13 65.84 0.45 63.85 0.45L63.85 0.45Q61.7 0.45 60.05-0.33 58.4-1.1 57.47-2.63 56.55-4.15 56.55-6.35L56.55-6.35 56.55-9Q56.55-11.85 58.32-13.43 60.1-15 63.3-15L63.3-15ZM100.14-24.95L100.14-24.95Q106.74-24.95 106.74-18.25L106.74-18.25 106.74 0 102.49 0 102.49-17.05Q102.49-19.5 101.69-20.43 100.89-21.35 98.99-21.35L98.99-21.35Q96.74-21.35 94.49-20.25 92.24-19.15 89.14-17.25L89.14-17.25 88.94-20.3Q91.79-22.5 94.59-23.73 97.39-24.95 100.14-24.95ZM85.34-24.35L88.94-24.35 89.29-19.7 89.59-18.95 89.59 0 85.34 0 85.34-24.35ZM122.49-24.95L122.49-24.95Q124.09-24.95 125.89-24.85 127.69-24.75 129.47-24.6 131.24-24.45 132.74-24.2L132.74-24.2 132.39-21.1Q130.09-21.2 127.77-21.28 125.44-21.35 123.14-21.35L123.14-21.35Q120.89-21.4 119.59-21.25 118.29-21.1 117.72-20.45 117.14-19.8 117.14-18.25L117.14-18.25Q117.14-16.35 118.04-15.75 118.94-15.15 120.69-14.75L120.69-14.75 127.79-13.15Q130.69-12.45 132.06-11 133.44-9.55 133.44-6.45L133.44-6.45Q133.44-3.45 132.31-1.95 131.19-0.45 128.89 0.05 126.59 0.55 123.04 0.55L123.04 0.55Q121.74 0.55 119.17 0.45 116.59 0.35 113.49-0.15L113.49-0.15 113.79-3.25Q114.99-3.2 116.34-3.13 117.69-3.05 119.17-3.05 120.64-3.05 122.19-3.05L122.19-3.05Q124.94-3.05 126.49-3.3 128.04-3.55 128.69-4.28 129.34-5 129.34-6.45L129.34-6.45Q129.34-8.25 128.29-8.85 127.24-9.45 125.49-9.85L125.49-9.85 118.49-11.45Q116.49-11.95 115.29-12.78 114.09-13.6 113.54-14.93 112.99-16.25 112.99-18.25L112.99-18.25Q112.99-21.1 113.99-22.55 114.99-24 117.09-24.5 119.19-25 122.49-24.95Z"
                                                                          opacity="1" transform="matrix(1,0,0,1,0,0)"
                                                                          fill="#ffffff" class="undefined-tk-1"></path>
                                                                </svg>
                                                            </g>
                                                        </svg>
                                                    </g>
                                                </svg>
                                            </g>
                                        </svg>
                                    </g>
                                </svg>
                            </g>
                            <g></g>
                        </svg>
                    </g>
                    <defs></defs>
                </svg>
                <rect width="325.8453240498891" height="59.056999999999995" fill="none" stroke="none"
                      visibility="hidden"></rect>
            </g>
        </svg>
    </g>
</svg>