<svg viewBox="0 0 16 16" fill="none" xmlns="http://www.w3.org/2000/svg">
    <path d="M9.33333 1.33333H4C3.64638 1.33333 3.30724 1.47381 3.05719 1.72386C2.80714 1.97391 2.66666 2.31305 2.66666 2.66667V13.3333C2.66666 13.687 2.80714 14.0261 3.05719 14.2761C3.30724 14.5262 3.64638 14.6667 4 14.6667H12C12.3536 14.6667 12.6928 14.5262 12.9428 14.2761C13.1929 14.0261 13.3333 13.687 13.3333 13.3333V5.33333M9.33333 1.33333L13.3333 5.33333M9.33333 1.33333L9.33333 5.33333H13.3333M10.6667 8.66667H5.33333M10.6667 11.3333H5.33333M6.66666 6H5.33333" stroke="currentColor" stroke-width="1.6" stroke-linecap="round" stroke-linejoin="round"/>
</svg>
