<svg width="20" height="20" viewBox="0 0 20 20" fill="none" xmlns="http://www.w3.org/2000/svg">
<path d="M0 10C0 4.47715 4.47715 0 10 0C15.5228 0 20 4.47715 20 10C20 15.5228 15.5228 20 10 20C4.47715 20 0 15.5228 0 10Z" fill="#E8B931"/>
<g clip-path="url(#clip0_71_9837)">
<path d="M14.605 11.945C14.2869 12.6972 13.7894 13.3601 13.156 13.8756C12.5225 14.3912 11.7724 14.7437 10.9712 14.9024C10.1701 15.0611 9.34223 15.0211 8.56009 14.7859C7.77795 14.5507 7.06533 14.1275 6.48453 13.5533C5.90373 12.9791 5.47243 12.2714 5.22834 11.492C4.98425 10.7126 4.9348 9.88524 5.08432 9.08232C5.23384 8.27939 5.57777 7.52531 6.08604 6.88601C6.59432 6.24672 7.25146 5.74166 8.00002 5.415M15 10C15 9.34339 14.8707 8.69321 14.6194 8.08658C14.3681 7.47995 13.9998 6.92876 13.5356 6.46447C13.0713 6.00017 12.5201 5.63188 11.9134 5.3806C11.3068 5.12933 10.6566 5 10 5V10H15Z" stroke="#522504" stroke-width="1.6" stroke-linecap="round" stroke-linejoin="round"/>
</g>
<defs>
<clipPath id="clip0_71_9837">
<rect width="12" height="12" fill="white" transform="translate(4 4)"/>
</clipPath>
</defs>
</svg>
