<svg viewBox="0 0 16 16" fill="none" xmlns="http://www.w3.org/2000/svg">
    <path d="M14.2933 7.36667L8.16667 13.4933C7.4161 14.2439 6.39812 14.6656 5.33667 14.6656C4.27521 14.6656 3.25723 14.2439 2.50667 13.4933C1.7561 12.7428 1.33444 11.7248 1.33444 10.6633C1.33444 9.60188 1.7561 8.5839 2.50667 7.83333L8.63333 1.70667C9.13371 1.20629 9.81236 0.925184 10.52 0.925184C11.2276 0.925184 11.9063 1.20629 12.4067 1.70667C12.907 2.20704 13.1881 2.8857 13.1881 3.59333C13.1881 4.30097 12.907 4.97963 12.4067 5.48L6.27333 11.6067C6.02315 11.8569 5.68382 11.9974 5.33 11.9974C4.97618 11.9974 4.63685 11.8569 4.38667 11.6067C4.13648 11.3565 3.99592 11.0172 3.99592 10.6633C3.99592 10.3095 4.13648 9.97019 4.38667 9.72L10.0467 4.06667" stroke="currentColor" stroke-width="1.6" stroke-linecap="round" stroke-linejoin="round"/>
</svg>
