<svg width="20" height="20" viewBox="0 0 20 20" fill="none" xmlns="http://www.w3.org/2000/svg">
<mask id="path-1-inside-1_71_9831" fill="white">
<path d="M0 10C0 4.47715 4.47715 0 10 0C15.5228 0 20 4.47715 20 10C20 15.5228 15.5228 20 10 20C4.47715 20 0 15.5228 0 10Z"/>
</mask>
<path d="M10 16C6.68629 16 4 13.3137 4 10H-4C-4 17.732 2.26801 24 10 24V16ZM16 10C16 13.3137 13.3137 16 10 16V24C17.732 24 24 17.732 24 10H16ZM10 4C13.3137 4 16 6.68629 16 10H24C24 2.26801 17.732 -4 10 -4V4ZM10 -4C2.26801 -4 -4 2.26801 -4 10H4C4 6.68629 6.68629 4 10 4V-4Z" fill="#2C2C2C" mask="url(#path-1-inside-1_71_9831)"/>
</svg>
