<svg viewBox="0 0 16 16" fill="none" xmlns="http://www.w3.org/2000/svg">
    <path d="M14.1399 10.5933C13.7158 11.5963 13.0525 12.4801 12.2079 13.1675C11.3633 13.8549 10.3631 14.3249 9.2949 14.5365C8.22668 14.7481 7.12289 14.6948 6.08004 14.3812C5.03719 14.0676 4.08703 13.5034 3.31262 12.7378C2.53822 11.9722 1.96315 11.0285 1.6377 9.9893C1.31225 8.9501 1.24632 7.84699 1.44568 6.77642C1.64503 5.70585 2.10361 4.70042 2.78131 3.84802C3.45901 2.99562 4.3352 2.32221 5.33328 1.88667M14.6666 8C14.6666 7.12452 14.4942 6.25761 14.1591 5.44878C13.8241 4.63994 13.333 3.90501 12.714 3.28595C12.0949 2.6669 11.36 2.17583 10.5512 1.8408C9.74233 1.50577 8.87542 1.33333 7.99994 1.33333V8H14.6666Z" stroke="currentColor" stroke-width="1.6" stroke-linecap="round" stroke-linejoin="round"/>
</svg>
